<?xml version="1.0" encoding="utf-8"?>
<!-- Generator: Adobe Illustrator 15.0.0, SVG Export Plug-In . SVG Version: 6.00 Build 0)  -->
<!DOCTYPE svg PUBLIC "-//W3C//DTD SVG 1.1//EN" "http://www.w3.org/Graphics/SVG/1.1/DTD/svg11.dtd">
<svg version="1.1" id="图层_1" xmlns="http://www.w3.org/2000/svg" xmlns:xlink="http://www.w3.org/1999/xlink" x="0px" y="0px"
	 width="200px" height="200px" viewBox="0 0 200 200" enable-background="new 0 0 200 200" xml:space="preserve">
<path fill="#1C9192" d="M107.367,7.012l71.687,39.806c5.017,2.776,8.135,8.054,8.146,13.788v78.787
	c-0.012,5.734-3.13,11.011-8.146,13.788l-71.687,39.807c-4.84,2.683-10.722,2.683-15.563,0l-71.686-39.807
	c-5.017-2.777-8.135-8.054-8.146-13.788V60.605c0.012-5.734,3.129-11.011,8.146-13.788L91.805,7.012
	C96.646,4.328,102.527,4.328,107.367,7.012z"/>
<path fill="#3ABCBD" d="M100.379,19.451c-0.491-0.272-1.088-0.272-1.579,0L27.114,59.258c-0.493,0.27-0.799,0.786-0.802,1.348
	v78.787c0,0.553,0.303,1.068,0.802,1.348L98.8,180.547c0.491,0.272,1.088,0.272,1.579,0l71.686-39.807
	c0.493-0.27,0.8-0.785,0.803-1.348V60.605c-0.003-0.562-0.31-1.078-0.803-1.348L100.379,19.451z M107.367,7.012l71.687,39.806
	c5.017,2.776,8.135,8.054,8.146,13.788v78.787c-0.012,5.734-3.13,11.011-8.146,13.788l-71.687,39.807
	c-4.84,2.683-10.722,2.683-15.563,0l-71.686-39.807c-5.017-2.777-8.135-8.054-8.146-13.788V60.605
	c0.012-5.734,3.129-11.011,8.146-13.788L91.805,7.012C96.646,4.328,102.527,4.328,107.367,7.012z"/>
<path fill="#FFFFFF" d="M83.742,67.968h63.367c4.376,0,7.922,3.527,7.922,7.879c0,4.353-3.546,7.88-7.922,7.88H83.742
	c-4.376,0-7.921-3.527-7.921-7.88C75.82,71.495,79.365,67.968,83.742,67.968z M83.742,91.6h63.367c4.376,0,7.922,3.527,7.922,7.879
	s-3.546,7.88-7.922,7.88H83.742c-4.376,0-7.921-3.527-7.921-7.88S79.365,91.6,83.742,91.6z M83.742,115.232h63.367
	c4.376,0,7.922,3.526,7.922,7.879s-3.546,7.879-7.922,7.879H83.742c-4.376,0-7.921-3.526-7.921-7.879S79.365,115.232,83.742,115.232
	z M52.058,83.721c-4.376,0-7.921-3.527-7.921-7.879c0-4.353,3.545-7.879,7.921-7.879s7.921,3.526,7.921,7.879
	C59.979,80.193,56.434,83.721,52.058,83.721z M52.058,107.354c-4.376,0-7.921-3.528-7.921-7.88c0-4.353,3.545-7.879,7.921-7.879
	s7.921,3.527,7.921,7.879C59.979,103.825,56.434,107.354,52.058,107.354z M52.058,130.984c-4.376,0-7.921-3.526-7.921-7.879
	s3.545-7.879,7.921-7.879s7.921,3.526,7.921,7.879S56.434,130.984,52.058,130.984z"/>
</svg>
